<svg width="952" height="161" viewBox="0 0 952 161" fill="none" xmlns="http://www.w3.org/2000/svg">
<path d="M55.1768 107.332C71.5619 107.332 85.5672 94.2369 85.7295 79.0061L85.7305 78.9963C85.8124 75.0687 85.2175 71.6688 83.7734 68.593C82.3294 65.5174 80.0065 62.7018 76.5381 59.9866C69.9981 54.8668 59.4918 50.1806 43.4668 44.8254L40.1875 43.7444C32.9126 41.3794 27.794 39.1044 24.4854 36.5276C21.1144 33.9022 19.5859 30.93 19.5859 27.2932C19.5861 24.1856 21.4269 21.2736 24.3027 18.9543C27.1885 16.6271 31.2189 14.803 35.8926 13.8499C38.0261 13.3375 38.788 12.9384 39.1992 12.2629C39.4208 11.8988 39.591 11.3692 39.6963 10.511C39.8016 9.65268 39.834 8.54735 39.834 7.07642C39.834 5.55523 39.812 4.43837 39.7188 3.60083C39.6241 2.75018 39.4681 2.32774 39.3037 2.0979C39.1741 1.91682 38.9742 1.76287 38.4844 1.65552C37.9552 1.53955 37.2129 1.50513 36.1094 1.50513C34.9291 1.50517 32.8228 1.96535 30.3018 2.78345C27.8155 3.59026 25.0349 4.70928 22.5508 5.94946C16.3959 9.10667 12.2638 12.4584 9.78125 16.2766C7.31316 20.0725 6.412 24.4271 6.90137 29.7258C7.23588 33.2329 7.6867 35.3925 8.67188 37.302C9.663 39.223 11.2389 40.9768 14.0146 43.5803L14.0195 43.5852C17.4645 46.8611 24.0949 51.0008 28.5225 52.6389L28.5234 52.6379C47.5649 59.6205 58.8326 64.0724 65.333 67.7874C68.5894 69.6484 70.7457 71.3761 72.0801 73.2239C73.4417 75.1096 73.8936 77.0449 73.8936 79.1858C73.8934 82.632 71.6271 86.2089 68.457 89.0491C65.2558 91.9171 60.9554 94.2007 56.5342 94.9954L56.5254 94.9973C54.7801 95.2949 53.531 95.5178 52.6055 95.7815C51.6808 96.045 51.2242 96.3121 50.957 96.6038C50.7015 96.8828 50.5079 97.3065 50.3965 98.1467C50.283 99.0026 50.2705 100.143 50.2705 101.762C50.2705 103.378 50.2823 104.528 50.3799 105.375C50.4787 106.233 50.6496 106.595 50.8154 106.779C50.9637 106.943 51.2428 107.113 51.9727 107.216C52.7118 107.32 53.7224 107.332 55.1768 107.332Z" fill="black" stroke="#2CEAC6" stroke-width="2"/>
<path d="M77.8281 22.9353C78.0678 22.7216 78.3786 22.387 78.7432 21.9421C79.2865 21.2791 79.9064 20.4233 80.5322 19.4783L81.1572 18.5076C82.2265 16.6976 82.7785 15.3603 82.9375 14.3728C83.0878 13.4393 82.8804 12.901 82.4795 12.5007L82.4385 12.4607L82.4023 12.4148C81.7157 11.5488 80.3873 10.5076 78.5498 9.4021C76.7357 8.31066 74.5071 7.20387 72.1025 6.1853C67.5821 4.27047 62.5265 2.70188 58.54 2.10913L57.7568 2.00366L50.2705 1.12476V6.73901C50.2705 8.39128 50.2933 9.58061 50.4102 10.4802C50.5261 11.3727 50.7213 11.8584 50.9785 12.1794C51.2318 12.4956 51.6408 12.7715 52.4385 13.0417C53.249 13.3163 54.341 13.5482 55.8721 13.8455C59.408 14.3865 65.726 16.7854 69.8369 19.1765C71.8511 20.2657 73.7733 21.2662 75.2705 21.9929C76.0218 22.3576 76.6545 22.647 77.1328 22.8435C77.3672 22.9398 77.5517 23.0091 77.6875 23.0525C77.7259 23.0229 77.773 22.9844 77.8281 22.9353Z" fill="black" stroke="#2CEAC6" stroke-width="2"/>
<path d="M610.156 1.50562H604.406C602.439 1.50564 600.723 1.71073 599.488 2.05737C598.868 2.23147 598.415 2.42896 598.119 2.62183C597.813 2.82189 597.781 2.94585 597.783 2.93823L597.765 3.01636L597.752 3.04468C597.751 3.04818 597.751 3.05212 597.75 3.0564C597.741 3.10612 597.729 3.18438 597.716 3.29565C597.69 3.51718 597.664 3.82847 597.638 4.23218C597.586 5.03741 597.539 6.1661 597.497 7.58765C597.413 10.4282 597.35 14.4055 597.308 19.2361C597.223 28.8951 597.223 41.9457 597.308 56.0935L597.804 106.556L604.139 106.998H604.141L610.156 107.427V1.50562Z" fill="black" stroke="#2CEAC6" stroke-width="2"/>
<path d="M620.593 107.637L640.314 106.996C653.122 106.491 661.587 105.44 668.344 102.911C675.06 100.396 680.165 96.3888 686.18 89.7992L686.182 89.7963C704.896 69.456 704.896 39.3816 686.182 19.0414L686.179 19.0385C680.25 12.5348 675.144 8.52677 668.405 5.9906C661.626 3.43938 653.116 2.34697 640.308 1.84216L640.307 1.84119L620.593 1.04236V14.6683H638.153C651.092 14.6683 660.223 15.8446 667.225 19.1664C674.278 22.5128 679.053 27.978 683.416 36.2631L683.419 36.2679C687.251 43.6587 688.187 52.6933 686.637 61.3138C685.086 69.936 681.033 78.2284 674.779 84.1254C670.634 88.0912 666.611 90.63 661.005 92.1547C655.447 93.6661 648.372 94.1693 638.153 94.1693H620.593V107.637Z" fill="black" stroke="#2CEAC6" stroke-width="2"/>
<path d="M189.826 107.332C191.211 107.332 192.278 107.301 193.091 107.219C193.924 107.135 194.388 107.007 194.635 106.878C194.812 106.785 194.81 106.736 194.818 106.685C194.843 106.531 194.816 106.218 194.615 105.616L194.592 105.549L194.584 105.505C194.582 105.506 194.552 105.423 194.438 105.217C194.309 104.986 194.118 104.677 193.86 104.286C193.347 103.507 192.601 102.453 191.644 101.151C189.731 98.5492 187.002 94.9945 183.661 90.7327C176.981 82.2113 167.875 70.8874 158.007 58.76L122.197 15.1526H114.558L114.545 15.1516C112.952 15.1098 111.693 15.1112 110.718 15.1594C109.727 15.2084 109.092 15.304 108.71 15.4231C108.656 15.4398 108.612 15.4558 108.576 15.47C108.599 15.5191 108.632 15.5821 108.679 15.6594L108.698 15.6917L108.716 15.7258C108.721 15.7351 108.736 15.7603 108.767 15.8059C108.81 15.8717 108.872 15.9595 108.952 16.0715C109.113 16.2954 109.338 16.5957 109.625 16.9709C110.199 17.7207 111.008 18.7513 112.028 20.0315C114.068 22.5909 116.939 26.1355 120.429 30.4094C127.408 38.9569 136.855 50.4114 147.062 62.7092L147.064 62.7122C165.56 85.1435 174.762 96.3447 180.169 101.952C182.877 104.761 184.545 106.07 185.875 106.703C187.153 107.312 188.179 107.332 189.826 107.332Z" fill="black" stroke="#2CEAC6" stroke-width="2"/>
<path d="M195.069 53.067V14.984H183.57V45.484L183.736 76.7887L190.075 84.0895L194.911 89.6627L195.069 53.067Z" fill="black" stroke="#2CEAC6" stroke-width="2"/>
<path d="M230.504 14.9841H219.012L219.343 60.6414L219.838 106.565L225.339 106.999H225.341L230.504 107.417V14.9841Z" fill="black" stroke="#2CEAC6" stroke-width="2"/>
<path d="M282.045 25.6198L282.478 20.1383V20.1364L282.896 14.984H239.17L239.588 20.1364V20.1383L240.021 25.6198H282.045Z" fill="black" stroke="#2CEAC6" stroke-width="2"/>
<path d="M382.676 107.023C383.902 107.161 385.432 107.162 386.973 107L386.982 107H386.992L391.499 106.614L371.484 61.5669L350.975 15.7808L344.652 15.3179H344.644L344.635 15.3169C342.814 15.1516 341.132 15.1121 339.924 15.1724C339.588 15.1891 339.301 15.2142 339.065 15.2427C339.104 15.3396 339.146 15.4449 339.191 15.5581C339.485 16.2877 339.919 17.3207 340.476 18.6177C341.588 21.2105 343.18 24.8374 345.096 29.1548C348.928 37.7885 354.052 49.1739 359.219 60.5552C364.386 71.9366 369.593 83.3118 373.594 91.9243C375.594 96.231 377.292 99.8436 378.53 102.42C379.15 103.71 379.652 104.735 380.019 105.456C380.202 105.817 380.349 106.094 380.456 106.287C380.503 106.371 380.539 106.433 380.565 106.475C380.64 106.529 380.817 106.628 381.155 106.732C381.547 106.853 382.062 106.954 382.676 107.023Z" fill="black" stroke="#2CEAC6" stroke-width="2"/>
<path d="M419.486 107.332V14.9836H407.987V107.332H419.486Z" fill="black" stroke="#2CEAC6" stroke-width="2"/>
<path d="M484.712 106.997V106.998L490.517 106.628L467.513 82.2322L442.877 56.2869L442.188 55.5613L442.915 54.8728L452.87 45.4373L452.874 45.4343C458.434 40.2188 468.402 30.7717 475.33 24.5291V24.53L485.746 14.9841H469.811L449.007 34.2605L428.235 53.5085V67.8367L430.108 66.1443C430.96 65.3746 431.728 64.683 432.471 64.2927C432.867 64.0848 433.295 63.9387 433.768 63.9128C434.243 63.8869 434.699 63.9864 435.143 64.1794C435.983 64.5447 436.858 65.2825 437.886 66.2908C438.934 67.3189 440.252 68.7416 441.972 70.5847L441.981 70.5945L441.99 70.6052C445.685 74.7975 455.286 84.8888 463.054 92.9822L463.053 92.9832L477.072 107.474L484.712 106.997Z" fill="black" stroke="#2CEAC6" stroke-width="2"/>
<path d="M539.87 107V106.999L545.214 106.566L545.7 85.5642L546.032 63.9871L529.174 39.321L512.262 14.9841H505.359C502.547 14.9841 500.937 15.1183 500.144 15.3767C500.064 15.4027 500.003 15.4283 499.956 15.449C499.966 15.4682 499.974 15.4908 499.987 15.5144C500.309 16.0733 502.463 19.2593 505.721 24.0115C508.967 28.7479 513.269 34.9799 517.824 41.5496L517.825 41.5515L534.361 65.4753L534.538 65.7322V107.42L539.87 107Z" fill="black" stroke="#2CEAC6" stroke-width="2"/>
<path d="M551.252 55.9122C551.285 55.9048 551.376 55.8741 551.542 55.756C551.896 55.5033 552.351 55.0334 553.04 54.2599L553.06 54.2374L553.08 54.2169C553.445 53.8523 554.163 52.9712 555.184 51.629C556.188 50.3073 557.448 48.5888 558.88 46.5919C561.742 42.5991 565.281 37.5097 568.82 32.2921L568.827 32.2814L580.893 14.9835H567.976L556.632 31.2355L556.625 31.2452L545.212 47.1984L548.379 52.0167L548.388 52.0294L548.396 52.0421C549.202 53.3554 549.8 54.3058 550.293 54.9659C550.812 55.661 551.092 55.8609 551.213 55.9073C551.237 55.9165 551.239 55.9152 551.252 55.9122Z" fill="black" stroke="#2CEAC6" stroke-width="2"/>
<path d="M794.469 107.022C795.741 107.161 797.314 107.162 798.854 107L798.875 106.999L803.547 106.611L783.534 61.5669L763.024 15.7817L756.534 15.3179H756.531C754.836 15.191 753.589 15.1103 752.678 15.1128C751.842 15.1151 751.455 15.1942 751.296 15.2563C751.297 15.2874 751.299 15.33 751.308 15.3862C751.349 15.675 751.478 16.0784 751.704 16.6636L751.963 17.311L751.966 17.3188C754.149 22.7692 763.967 44.8143 773.399 65.6743C778.113 76.0975 782.725 86.2142 786.232 93.7974C787.986 97.5895 789.462 100.745 790.536 102.988C791.073 104.11 791.508 104.998 791.824 105.622C791.983 105.934 792.108 106.173 792.2 106.337C792.234 106.397 792.26 106.443 792.28 106.476L792.282 106.477C792.311 106.497 792.353 106.521 792.409 106.549C792.524 106.606 792.681 106.668 792.885 106.729C793.294 106.851 793.832 106.952 794.469 107.022Z" fill="black" stroke="#2CEAC6" stroke-width="2"/>
<path d="M873.383 26.4622V14.9836H797.765V26.4622H873.383Z" fill="black" stroke="#2CEAC6" stroke-width="2"/>
<path d="M900.38 107.332V14.9836H888.881V107.332H900.38Z" fill="black" stroke="#2CEAC6" stroke-width="2"/>
<path d="M951 14.9841H909.045L909.463 20.1365V20.1384L909.898 25.6414L930.594 26.1257L951 26.6072V14.9841Z" fill="black" stroke="#2CEAC6" stroke-width="2"/>
<path d="M300.348 107.332H306.265L311.912 93.9592L311.918 93.9456L317.993 80.1311L318.248 79.5491L318.884 79.5334L339.3 79.0276L358.015 78.5618L355.975 74.2317L353.379 68.8967H340C336.095 68.8967 332.556 68.7282 329.979 68.4495C328.697 68.3108 327.619 68.1411 326.843 67.9417C326.463 67.844 326.099 67.7252 325.809 67.5706C325.665 67.4938 325.487 67.3817 325.335 67.218C325.197 67.0702 325.04 66.8341 325.003 66.5198L324.995 66.3811L325.001 66.2551C325.012 66.1309 325.035 66.0142 325.055 65.927C325.085 65.7929 325.127 65.6417 325.176 65.4797C325.274 65.1545 325.414 64.743 325.588 64.2629C325.937 63.3006 326.437 62.0183 327.051 60.5081C328.279 57.4847 329.971 53.5157 331.829 49.2981L331.833 49.2903L338.552 34.3987L335.229 27.9182L335.225 27.9094C334.306 26.0754 333.391 24.4146 332.669 23.22C332.523 22.9793 332.386 22.7608 332.261 22.5647C332.015 23.0791 331.707 23.7306 331.344 24.51C330.336 26.6702 328.897 29.7947 327.137 33.6477C323.615 41.3534 318.807 51.9662 313.577 63.5901H313.576C308.432 75.2939 303.754 86.0704 300.36 94.0042C298.663 97.9725 297.288 101.228 296.339 103.531C295.864 104.683 295.498 105.591 295.251 106.23C295.175 106.426 295.115 106.595 295.063 106.735C295.278 106.819 295.591 106.91 296.009 106.993C297.081 107.207 298.613 107.332 300.348 107.332Z" fill="black" stroke="#2CEAC6" stroke-width="2"/>
<path d="M712.06 107.332H717.992L724.14 93.6028L730.551 79.2825L730.815 78.6907H769.855L767.687 74.2317L765.091 68.8967H751.712C747.807 68.8967 744.268 68.7282 741.691 68.4495C740.409 68.3108 739.331 68.1411 738.555 67.9417C738.175 67.844 737.811 67.7252 737.521 67.5706C737.377 67.4938 737.199 67.3817 737.047 67.218C736.909 67.0702 736.752 66.8341 736.715 66.5198L736.707 66.3811L736.713 66.2542C736.724 66.13 736.748 66.014 736.768 65.927C736.798 65.7934 736.84 65.6427 736.889 65.4827C736.987 65.1617 737.128 64.7573 737.302 64.2864C737.651 63.342 738.152 62.0855 738.766 60.6067C739.994 57.6463 741.685 53.7613 743.544 49.6282L743.548 49.6204L743.552 49.6116L750.281 35.3518L747.412 28.3469C746.581 26.4388 745.712 24.6656 744.996 23.3782C744.786 23.0003 744.59 22.6733 744.419 22.3997C744.135 22.933 743.771 23.6488 743.334 24.5354C742.269 26.6936 740.786 29.8225 738.994 33.6946C735.412 41.4368 730.606 52.1282 725.462 63.9163L725.46 63.9221L721.646 72.553C717.951 80.9428 714.653 88.518 712.092 94.47C710.384 98.4382 709.004 101.683 708.052 103.966C707.575 105.108 707.208 106.005 706.96 106.63C706.927 106.713 706.898 106.792 706.87 106.865C707.087 106.919 707.359 106.976 707.686 107.03C708.781 107.209 710.329 107.332 712.06 107.332Z" fill="black" stroke="#2CEAC6" stroke-width="2"/>
<path d="M117.452 107.332V40.4749L111.794 34.0178L111.789 34.0129L111.785 34.0071L107.798 29.3245L107.641 67.3958V107.332H117.452Z" fill="black" stroke="#2CEAC6" stroke-width="2"/>
<path d="M841.323 107.332V35.2014H829.824V107.332H841.323Z" fill="black" stroke="#2CEAC6" stroke-width="2"/>
<path d="M273.608 61.0005L274.041 55.519V55.5171L274.459 50.3647H239.17L239.588 55.5171V55.519L240.021 61.0005H273.608Z" fill="black" stroke="#2CEAC6" stroke-width="2"/>
<path d="M943.483 61.0005L943.916 55.519V55.5171L944.334 50.3647H909.045L909.463 55.5171V55.519L909.896 61.0005H943.483Z" fill="black" stroke="#2CEAC6" stroke-width="2"/>
<path d="M39.834 102.099C39.834 100.447 39.8109 99.2565 39.6963 98.3553C39.5824 97.4599 39.3902 96.9713 39.1387 96.6493C38.8932 96.3351 38.4992 96.0611 37.7285 95.7928C37.1394 95.5878 36.3965 95.4069 35.4336 95.204L34.3945 94.9921C27.9682 93.7754 19.236 89.6555 12.2471 84.7196L12.2354 84.7118L12.2246 84.703C11.3714 84.0641 10.7925 83.6698 10.3213 83.4618C9.90052 83.2761 9.64176 83.2728 9.37988 83.3583C9.05206 83.4653 8.60567 83.7512 7.91602 84.412C7.24015 85.0595 6.41856 85.9777 5.3252 87.2372L1.43457 91.9843L4.64941 94.3905L4.66113 94.4003L4.67383 94.41C8.38629 97.3755 13.369 100.241 18.459 102.49C23.5548 104.742 28.6864 106.345 32.6875 106.834L39.834 107.709V102.099Z" fill="black" stroke="#2CEAC6" stroke-width="2"/>
<path d="M282.812 107.332V95.8538H239.253V107.332H282.812Z" fill="black" stroke="#2CEAC6" stroke-width="2"/>
<path d="M951 107.332V95.8538H909.129V107.332H951Z" fill="black" stroke="#2CEAC6" stroke-width="2"/>
<path d="M71.6802 133.516H78.2183C79.6232 133.516 80.8208 133.727 81.8111 134.15C82.8013 134.574 83.5588 135.2 84.0835 136.029C84.6167 136.85 84.8833 137.866 84.8833 139.076C84.8833 139.999 84.7141 140.811 84.3755 141.514C84.037 142.216 83.5588 142.809 82.9409 143.291C82.3231 143.765 81.5868 144.133 80.732 144.396L79.7671 144.865H73.8892L73.8638 142.339H78.2691C79.0308 142.339 79.6656 142.203 80.1734 141.933C80.6812 141.662 81.062 141.294 81.3159 140.828C81.5783 140.354 81.7095 139.821 81.7095 139.229C81.7095 138.585 81.5826 138.027 81.3286 137.553C81.0832 137.07 80.7023 136.702 80.1861 136.448C79.6698 136.186 79.0139 136.055 78.2183 136.055H74.8667V152H71.6802V133.516ZM82.23 152L77.8882 143.697L81.2271 143.685L85.6324 151.835V152H82.23ZM114.747 152H110.799L110.824 149.474H114.747C115.89 149.474 116.846 149.224 117.616 148.725C118.395 148.225 118.979 147.51 119.368 146.579C119.766 145.648 119.965 144.539 119.965 143.253V142.25C119.965 141.251 119.851 140.367 119.622 139.597C119.402 138.826 119.072 138.179 118.632 137.654C118.2 137.13 117.667 136.732 117.032 136.461C116.406 136.19 115.682 136.055 114.862 136.055H110.723V133.516H114.862C116.089 133.516 117.21 133.723 118.226 134.138C119.241 134.544 120.117 135.132 120.854 135.902C121.599 136.673 122.17 137.595 122.568 138.67C122.965 139.745 123.164 140.947 123.164 142.275V143.253C123.164 144.582 122.965 145.784 122.568 146.858C122.17 147.933 121.599 148.856 120.854 149.626C120.109 150.388 119.22 150.976 118.188 151.391C117.164 151.797 116.017 152 114.747 152ZM112.564 133.516V152H109.377V133.516H112.564ZM153.739 148.623L158.601 133.516H162.118L155.491 152H153.117L153.739 148.623ZM149.245 133.516L154.069 148.623L154.729 152H152.343L145.741 133.516H149.245ZM227.495 142.555V149.613C227.233 149.96 226.823 150.341 226.264 150.756C225.714 151.162 224.982 151.513 224.068 151.81C223.154 152.106 222.015 152.254 220.653 152.254C219.493 152.254 218.431 152.059 217.466 151.67C216.501 151.272 215.668 150.692 214.965 149.931C214.271 149.169 213.734 148.242 213.353 147.15C212.972 146.05 212.781 144.798 212.781 143.393V142.11C212.781 140.714 212.955 139.47 213.302 138.378C213.657 137.278 214.165 136.347 214.825 135.585C215.486 134.823 216.281 134.248 217.212 133.858C218.152 133.461 219.214 133.262 220.399 133.262C221.914 133.262 223.166 133.516 224.156 134.023C225.155 134.523 225.925 135.217 226.467 136.105C227.009 136.994 227.351 138.01 227.495 139.152H224.372C224.271 138.509 224.072 137.934 223.776 137.426C223.488 136.918 223.073 136.52 222.531 136.232C221.998 135.936 221.304 135.788 220.449 135.788C219.713 135.788 219.066 135.928 218.507 136.207C217.948 136.486 217.483 136.897 217.111 137.438C216.747 137.98 216.472 138.64 216.285 139.419C216.099 140.198 216.006 141.086 216.006 142.085V143.393C216.006 144.408 216.112 145.31 216.323 146.097C216.544 146.884 216.857 147.548 217.263 148.09C217.678 148.632 218.181 149.042 218.774 149.321C219.366 149.592 220.035 149.728 220.78 149.728C221.507 149.728 222.104 149.668 222.57 149.55C223.035 149.423 223.403 149.275 223.674 149.105C223.953 148.928 224.169 148.758 224.322 148.598V144.929H220.475V142.555H227.495ZM259.543 135.979L254.02 152H250.682L257.639 133.516H259.771L259.543 135.979ZM264.164 152L258.629 135.979L258.388 133.516H260.533L267.516 152H264.164ZM263.897 145.145V147.671H253.843V145.145H263.897ZM292.2 133.516H295.044L300.388 147.772L305.72 133.516H308.564L301.505 152H299.246L292.2 133.516ZM290.905 133.516H293.609L294.079 145.855V152H290.905V133.516ZM307.155 133.516H309.872V152H306.685V145.855L307.155 133.516ZM338.377 133.516V152H335.191V133.516H338.377ZM378.321 133.516V152H375.135L366.845 138.759V152H363.658V133.516H366.845L375.16 146.782V133.516H378.321ZM417.631 142.555V149.613C417.368 149.96 416.958 150.341 416.399 150.756C415.849 151.162 415.117 151.513 414.203 151.81C413.289 152.106 412.15 152.254 410.788 152.254C409.628 152.254 408.566 152.059 407.601 151.67C406.636 151.272 405.803 150.692 405.1 149.931C404.406 149.169 403.869 148.242 403.488 147.15C403.107 146.05 402.917 144.798 402.917 143.393V142.11C402.917 140.714 403.09 139.47 403.437 138.378C403.793 137.278 404.3 136.347 404.961 135.585C405.621 134.823 406.416 134.248 407.347 133.858C408.287 133.461 409.349 133.262 410.534 133.262C412.049 133.262 413.301 133.516 414.292 134.023C415.29 134.523 416.061 135.217 416.602 136.105C417.144 136.994 417.487 138.01 417.631 139.152H414.507C414.406 138.509 414.207 137.934 413.911 137.426C413.623 136.918 413.208 136.52 412.667 136.232C412.133 135.936 411.439 135.788 410.585 135.788C409.848 135.788 409.201 135.928 408.642 136.207C408.084 136.486 407.618 136.897 407.246 137.438C406.882 137.98 406.607 138.64 406.421 139.419C406.234 140.198 406.141 141.086 406.141 142.085V143.393C406.141 144.408 406.247 145.31 406.459 146.097C406.679 146.884 406.992 147.548 407.398 148.09C407.813 148.632 408.316 149.042 408.909 149.321C409.501 149.592 410.17 149.728 410.915 149.728C411.643 149.728 412.239 149.668 412.705 149.55C413.17 149.423 413.538 149.275 413.809 149.105C414.089 148.928 414.304 148.758 414.457 148.598V144.929H410.61V142.555H417.631ZM481.192 145.982H484.366C484.265 147.193 483.926 148.272 483.351 149.22C482.775 150.159 481.967 150.9 480.926 151.441C479.885 151.983 478.619 152.254 477.13 152.254C475.987 152.254 474.959 152.051 474.045 151.645C473.131 151.23 472.348 150.646 471.696 149.893C471.045 149.131 470.545 148.213 470.198 147.138C469.86 146.063 469.69 144.861 469.69 143.532V141.996C469.69 140.667 469.864 139.465 470.211 138.391C470.566 137.316 471.074 136.397 471.734 135.636C472.395 134.866 473.186 134.277 474.108 133.871C475.039 133.465 476.085 133.262 477.244 133.262C478.717 133.262 479.961 133.533 480.977 134.074C481.992 134.616 482.779 135.365 483.338 136.321C483.905 137.278 484.252 138.374 484.379 139.609H481.205C481.12 138.814 480.934 138.132 480.646 137.565C480.367 136.998 479.952 136.567 479.402 136.271C478.852 135.966 478.133 135.813 477.244 135.813C476.516 135.813 475.882 135.949 475.34 136.22C474.798 136.491 474.345 136.888 473.981 137.413C473.618 137.938 473.342 138.585 473.156 139.355C472.979 140.117 472.89 140.989 472.89 141.971V143.532C472.89 144.463 472.97 145.31 473.131 146.071C473.3 146.825 473.554 147.472 473.893 148.014C474.24 148.555 474.68 148.974 475.213 149.271C475.746 149.567 476.385 149.715 477.13 149.715C478.035 149.715 478.768 149.571 479.326 149.283C479.893 148.995 480.321 148.576 480.608 148.026C480.905 147.468 481.099 146.786 481.192 145.982ZM520.794 141.234V143.761H510.98V141.234H520.794ZM511.767 133.516V152H508.581V133.516H511.767ZM523.244 133.516V152H520.07V133.516H523.244ZM560.458 149.474V152H550.645V149.474H560.458ZM551.546 133.516V152H548.36V133.516H551.546ZM559.176 141.234V143.723H550.645V141.234H559.176ZM560.395 133.516V136.055H550.645V133.516H560.395ZM591.579 135.979L586.057 152H582.718L589.675 133.516H591.808L591.579 135.979ZM596.2 152L590.665 135.979L590.424 133.516H592.569L599.552 152H596.2ZM595.934 145.145V147.671H585.879V145.145H595.934ZM628.946 133.516V152H625.785V133.516H628.946ZM634.748 133.516V136.055H620.034V133.516H634.748ZM670.604 149.474V152H660.79V149.474H670.604ZM661.692 133.516V152H658.505V133.516H661.692ZM669.322 141.234V143.723H660.79V141.234H669.322ZM670.54 133.516V136.055H660.79V133.516H670.54ZM694.526 133.516H701.065C702.47 133.516 703.667 133.727 704.657 134.15C705.648 134.574 706.405 135.2 706.93 136.029C707.463 136.85 707.73 137.866 707.73 139.076C707.73 139.999 707.56 140.811 707.222 141.514C706.883 142.216 706.405 142.809 705.787 143.291C705.169 143.765 704.433 144.133 703.578 144.396L702.613 144.865H696.735L696.71 142.339H701.115C701.877 142.339 702.512 142.203 703.02 141.933C703.527 141.662 703.908 141.294 704.162 140.828C704.425 140.354 704.556 139.821 704.556 139.229C704.556 138.585 704.429 138.027 704.175 137.553C703.929 137.07 703.549 136.702 703.032 136.448C702.516 136.186 701.86 136.055 701.065 136.055H697.713V152H694.526V133.516ZM705.076 152L700.734 143.697L704.073 143.685L708.479 151.835V152H705.076ZM763.205 133.516V152H760.018V133.516H763.205ZM770.746 141.603V144.129H762.392V141.603H770.746ZM771.799 133.516V136.055H762.392V133.516H771.799ZM795.658 133.516H802.196C803.601 133.516 804.799 133.727 805.789 134.15C806.779 134.574 807.537 135.2 808.062 136.029C808.595 136.85 808.861 137.866 808.861 139.076C808.861 139.999 808.692 140.811 808.354 141.514C808.015 142.216 807.537 142.809 806.919 143.291C806.301 143.765 805.565 144.133 804.71 144.396L803.745 144.865H797.867L797.842 142.339H802.247C803.009 142.339 803.644 142.203 804.151 141.933C804.659 141.662 805.04 141.294 805.294 140.828C805.556 140.354 805.688 139.821 805.688 139.229C805.688 138.585 805.561 138.027 805.307 137.553C805.061 137.07 804.68 136.702 804.164 136.448C803.648 136.186 802.992 136.055 802.196 136.055H798.845V152H795.658V133.516ZM806.208 152L801.866 143.697L805.205 143.685L809.61 151.835V152H806.208ZM845.454 149.474V152H835.64V149.474H845.454ZM836.542 133.516V152H833.355V133.516H836.542ZM844.172 141.234V143.723H835.64V141.234H844.172ZM845.39 133.516V136.055H835.64V133.516H845.39ZM881.475 149.474V152H871.662V149.474H881.475ZM872.563 133.516V152H869.376V133.516H872.563ZM880.193 141.234V143.723H871.662V141.234H880.193ZM881.412 133.516V136.055H871.662V133.516H881.412Z" fill="black"/>
</svg>
